{"title":"I Am Number Four-AC3-XviD-BRRip 2011 TBS","uid":6371092,"size":1569605037,"categoryP":"video","categoryS":"movies","magnet":"?xt=urn:btih:c00fd970c90c81f6ae64de9ed57654c42e69c075&amp;dn=I+Am+Number+Four-AC3-XviD-BRRip+2011+TBS&amp;tr=udp%3A%2F%2Ftracker.openbittorrent.com%3A80&amp;tr=udp%3A%2F%2Fopen.demonii.com%3A1337&amp;tr=udp%3A%2F%2Ftracker.coppersurfer.tk%3A6969&amp;tr=udp%3A%2F%2Fexodus.desync.com%3A6969","seeders":0,"leechers":1,"uploader":"FatFreddy30","files":-1,"time":1304640153,"description":"John is an extraordinary teen, masking his true identity and passing as a typical high school student to elude a deadly enemy seeking to destroy him. Three like him have already been killed ... he is Number Four.\n &lt;a href=&quot;\nhttp://www.imdb.com/title/tt1464540/&quot; rel=&quot;nofollow&quot; target=&quot;_NEW&quot;&gt;\nhttp://www.imdb.com/title/tt1464540/&lt;/a&gt;\n\nSubs: Dutch, English.\n\nNegen buitenaardse baby's met menselijke kenmerken vluchten van hun thuis planeet Lorien om zich te verschuilen op Aarde. Ze worden gevolgd door de Mogadorians die hun eigen planeet vernietigd hebben om de baby's op te sporen. De baby's hebben allemaal een eigen lijfwacht en ze zullen superkrachten krijgen wanneer ze ouder worden. Ze hebben allemaal een nummer van ÃƒÂ©ÃƒÂ©n tot negen en kunnen ook alleen in die volgorde vermoord worden. Number Four (Alex Pettyfer), ook John Smith genaamd, verhuist naar Paradise, Ohio en wordt vrienden met de vriendelijke fotograaf Sarah. Na zijn hele leven op de vlucht te zijn geweest is Number Four verliefd geworden en heeft hij iets om voor te vechten...\n &lt;a href=&quot;\nhttp://www.moviemeter.nl/film/70479&quot; rel=&quot;nofollow&quot; target=&quot;_NEW&quot;&gt;\nhttp://www.moviemeter.nl/film/70479&lt;/a&gt;\n\nSubs: Engels, Nederlands.\n\nSource: I.Am.Number.Four.720p.BluRay.x264-BLOW \n\nGeneral\nComplete name                    : I Am Number Four-AC3-XviD-BRRip 2011.avi\nFormat                           : AVI\nFormat/Info                      : Audio Video Interleave\nFile size                        : 1.46 GiB\nDuration                         : 1h 49mn\nOverall bit rate                 : 1 909 Kbps\nWriting application              : VirtualDubMod 1.5.4.1 (build 2178/release)\nWriting library                  : VirtualDubMod build 2178/release\n\nVideo\nID                               : 0\nFormat                           : MPEG-4 Visual\nFormat profile                   : Simple@L3\nFormat settings, BVOP            : No\nFormat settings, QPel            : No\nFormat settings, GMC             : No warppoints\nFormat settings, Matrix          : Default (H.263)\nCodec ID                         : XVID\nCodec ID/Hint                    : XviD\nDuration                         : 1h 49mn\nBit rate                         : 1 452 Kbps\nWidth                            : 720 pixels\nHeight                           : 400 pixels\nDisplay aspect ratio             : 16:9\nFrame rate                       : 23.976 fps\nResolution                       : 8 bits\nColorimetry                      : 4:2:0\nScan type                        : Progressive\nBits/(Pixel*Frame)               : 0.210\nStream size                      : 1.11 GiB (76%)\nWriting library                  : XviD 1.1.2 (UTC 2006-11-01)\n\nAudio\nID                               : 1\nFormat                           : AC-3\nFormat/Info                      : Audio Coding 3\nCodec ID                         : 2000\nDuration                         : 1h 49mn\nBit rate mode                    : Constant\nBit rate                         : 448 Kbps\nChannel(s)                       : 6 channels\nChannel positions                : Front: L C R, Surround: L R, LFE\nSampling rate                    : 48.0 KHz\nStream size                      : 351 MiB (23%)\nAlignment                        : Split accross interleaves\nInterleave, duration             : 42 ms (1.00 video frame)\nInterleave, preload duration     : 500 ms\n\nEnjoy..\n\nTBS.","torrent":{"xt":"urn:btih:c00fd970c90c81f6ae64de9ed57654c42e69c075","amp;dn":"I+Am+Number+Four-AC3-XviD-BRRip+2011+TBS","amp;tr":["udp%3A%2F%2Ftracker.openbittorrent.com%3A80","udp%3A%2F%2Fopen.demonii.com%3A1337","udp%3A%2F%2Ftracker.coppersurfer.tk%3A6969","udp%3A%2F%2Fexodus.desync.com%3A6969"],"infoHash":"c00fd970c90c81f6ae64de9ed57654c42e69c075","infoHashBuffer":{"type":"Buffer","data":[192,15,217,112,201,12,129,246,174,100,222,158,213,118,84,196,46,105,192,117]},"announce":[],"urlList":[]}}